<svg xmlns="http://www.w3.org/2000/svg" viewBox="0 0 200 200" width="200" height="200">
  <!-- Background rounded rectangle (dark outline) -->
  <rect x="10" y="20" width="160" height="170" rx="20" ry="20" fill="#333333" stroke="#333333" stroke-width="8"/>
  <!-- Inner orange fill -->
  <rect x="18" y="28" width="144" height="154" rx="14" ry="14" fill="#e8420b"/>
  <!-- Letter R shape (dark) -->
  <path d="M50 45 L50 175 L75 175 L75 130 L100 130 L130 175 L160 175 L125 125 C145 118 155 100 155 82 C155 58 135 45 105 45 Z M75 65 L105 65 C125 65 132 72 132 82 C132 92 125 100 105 100 L75 100 Z" fill="#333333"/>
  <!-- Puzzle notch (right side) -->
  <circle cx="170" cy="105" r="18" fill="#333333"/>
  <circle cx="170" cy="105" r="10" fill="#e8420b"/>
  <!-- Puzzle tab (bottom) -->
  <circle cx="100" cy="195" r="18" fill="#333333"/>
  <circle cx="100" cy="195" r="10" fill="#e8420b"/>
</svg>
